<svg width="529" height="125" viewBox="0 0 529 125" fill="none" xmlns="http://www.w3.org/2000/svg">
<g clip-path="url(#clip0)">
<path d="M77.527 0V82.691H93.032V15.47L77.527 0Z" fill="#038375"/>
<path d="M103.372 124.04L62.016 82.687H77.528L103.372 108.537V124.04Z" fill="#038375"/>
<path d="M0 82.691L41.345 124.04V98.197L25.834 82.691H0Z" fill="#038375"/>
<path d="M30.994 82.691L72.344 124.04V103.361L51.681 82.691H30.994Z" fill="#038375"/>
<path d="M124.044 82.691L165.4 124.04V118.866L129.208 82.691H124.044Z" fill="#038375"/>
<path d="M129.235 0V82.691H155.073V25.782L129.235 0Z" fill="#038375"/>
<path d="M51.634 0V82.691H61.946V10.308L51.634 0Z" fill="#038375"/>
<path d="M25.841 0V82.691H31.003V5.154L25.841 0Z" fill="#038375"/>
<path d="M93.038 82.691L134.382 124.04V113.705L103.378 82.691H93.038Z" fill="#038375"/>
<path d="M103.372 0V82.691H124.044V20.627L103.372 0Z" fill="#038375"/>
<path d="M124.044 82.691L165.4 124.04V118.866L129.218 82.691H124.044Z" fill="#038375"/>
<path d="M205.064 113.851C205.064 111.558 204.26 109.75 202.65 108.414C201.041 107.08 198.096 105.811 193.822 104.61C189.544 103.413 186.421 102.092 184.452 100.679C181.652 98.674 180.255 96.043 180.255 92.788C180.255 89.627 181.553 87.057 184.156 85.075C186.756 83.103 190.082 82.114 194.136 82.114C196.878 82.114 199.334 82.647 201.501 83.701C203.668 84.762 205.344 86.237 206.544 88.13C207.735 90.026 208.332 92.132 208.332 94.462H204.81C204.81 91.634 203.844 89.359 201.911 87.646C199.984 85.927 197.391 85.066 194.136 85.066C190.972 85.066 188.456 85.775 186.585 87.185C184.713 88.595 183.773 90.44 183.773 92.718C183.773 94.817 184.62 96.535 186.297 97.858C187.986 99.186 190.679 100.358 194.382 101.376C198.096 102.387 200.908 103.437 202.82 104.523C204.728 105.613 206.172 106.919 207.137 108.43C208.1 109.941 208.582 111.73 208.582 113.792C208.582 117.049 207.282 119.66 204.678 121.628C202.08 123.595 198.648 124.582 194.382 124.582C191.471 124.582 188.803 124.06 186.37 123.019C183.937 121.98 182.096 120.52 180.834 118.647C179.572 116.772 178.946 114.624 178.946 112.2H182.44C182.44 115.116 183.526 117.417 185.706 119.101C187.877 120.787 190.777 121.627 194.382 121.627C197.605 121.627 200.192 120.916 202.141 119.502C204.086 118.081 205.064 116.195 205.064 113.851Z" fill="#1D1D1B"/>
<path d="M218.885 107.177V124.017H215.395V82.682H229.479C233.774 82.682 237.164 83.781 239.657 85.98C242.142 88.172 243.389 91.19 243.389 95.031C243.389 98.913 242.193 101.902 239.793 104.013C237.402 106.126 233.931 107.177 229.393 107.177H218.885V107.177ZM218.885 104.229H229.479C232.862 104.229 235.444 103.418 237.229 101.809C239.002 100.2 239.892 97.955 239.892 95.071C239.892 92.212 239.013 89.934 237.243 88.239C235.475 86.543 232.959 85.672 229.699 85.636H218.885V104.229V104.229Z" fill="#1D1D1B"/>
<path d="M281.65 82.672V109.892C281.65 114.414 280.238 117.995 277.415 120.628C274.58 123.255 270.716 124.57 265.809 124.57C260.985 124.57 257.155 123.29 254.318 120.738C251.478 118.185 250.029 114.672 249.974 110.21V82.672H258.489V109.953C258.489 112.66 259.132 114.631 260.43 115.868C261.73 117.106 263.52 117.727 265.809 117.727C270.599 117.727 273.034 115.213 273.11 110.176V82.671H281.65V82.672Z" fill="#1D1D1B"/>
<path d="M304.945 100.979C303.826 100.828 302.84 100.75 301.99 100.75C298.884 100.75 296.846 101.802 295.886 103.897V124.002H287.684V93.285H295.658V96.945C297.309 94.126 299.591 92.722 302.505 92.722C303.366 92.722 304.18 92.806 304.945 93.05V100.979Z" fill="#1D1D1B"/>
<path d="M337.39 108.927C337.39 113.851 336.344 117.682 334.243 120.438C332.142 123.194 329.208 124.577 325.439 124.577C322.358 124.577 319.851 123.479 317.913 121.288V124.005H309.717V82.679H317.912V96.04C319.809 93.827 322.303 92.72 325.382 92.72C329.134 92.72 332.069 94.098 334.196 96.848C336.33 99.603 337.389 103.479 337.389 108.476V108.927H337.39ZM329.187 108.304C329.187 105.191 328.694 102.916 327.714 101.483C326.728 100.054 325.259 99.331 323.313 99.331C320.7 99.331 318.901 100.408 317.913 102.553V114.707C318.922 116.876 320.742 117.957 323.369 117.957C326.018 117.957 327.756 116.649 328.594 114.021C328.993 112.777 329.187 110.864 329.187 108.304Z" fill="#1D1D1B"/>
<path d="M359.7 124.027L359.703 121.613C357.759 123.584 355.285 124.576 352.287 124.576C349.28 124.576 346.79 123.7 344.808 121.956C342.829 120.219 341.841 118.022 341.841 115.367C341.841 112.116 343.05 109.62 345.463 107.876C347.874 106.141 351.366 105.259 355.921 105.24H359.699V103.477C359.699 102.06 359.331 100.925 358.603 100.065C357.873 99.222 356.729 98.796 355.155 98.796C353.775 98.796 352.692 99.124 351.91 99.785C351.121 100.448 350.725 101.358 350.725 102.509H342.523C342.523 100.733 343.073 99.084 344.173 97.57C345.266 96.059 346.82 94.871 348.822 94.007C350.826 93.148 353.084 92.717 355.582 92.717C359.367 92.717 362.371 93.666 364.596 95.575C366.818 97.474 367.925 100.147 367.925 103.587V124.026H359.7V124.027ZM354.08 118.297C355.285 118.297 356.406 118.031 357.429 117.488C358.447 116.948 359.208 116.22 359.7 115.314V110.035H356.631C352.527 110.035 350.34 111.455 350.079 114.294L350.045 114.772C350.045 115.798 350.406 116.639 351.126 117.305C351.847 117.965 352.827 118.297 354.08 118.297Z" fill="#1D1D1B"/>
<path d="M382.057 93.288V96.56C384.232 94.003 387.094 92.724 390.664 92.724C393.911 92.724 396.343 93.676 397.932 95.587C399.514 97.499 400.336 100.358 400.369 104.155V124.003H392.167V104.314C392.167 102.565 391.786 101.303 391.031 100.516C390.277 99.73 389.016 99.329 387.257 99.329C384.947 99.329 383.216 100.32 382.058 102.296V124.003H373.863V93.287H382.057V93.288Z" fill="#1D1D1B"/>
<path d="M406.117 85.338C406.117 84.109 406.529 83.094 407.354 82.303C408.172 81.506 409.295 81.112 410.714 81.112C412.115 81.112 413.228 81.507 414.064 82.303C414.901 83.094 415.31 84.109 415.31 85.338C415.31 86.585 414.89 87.609 414.054 88.405C413.202 89.198 412.096 89.598 410.714 89.598C409.336 89.598 408.222 89.198 407.378 88.405C406.54 87.608 406.117 86.585 406.117 85.338ZM414.832 124.004H406.603V93.288H414.832V124.004Z" fill="#1D1D1B"/>
<path d="M438.02 115.516C438.02 114.514 437.518 113.72 436.528 113.14C435.533 112.567 433.94 112.051 431.742 111.594C424.437 110.067 420.788 106.96 420.788 102.286C420.788 99.562 421.916 97.285 424.177 95.46C426.443 93.635 429.4 92.719 433.053 92.719C436.949 92.719 440.063 93.635 442.408 95.473C444.736 97.308 445.912 99.695 445.912 102.629H437.702C437.702 101.452 437.323 100.482 436.57 99.723C435.811 98.952 434.631 98.571 433.023 98.571C431.639 98.571 430.571 98.883 429.808 99.506C429.051 100.128 428.673 100.927 428.673 101.886C428.673 102.799 429.108 103.534 429.968 104.09C430.832 104.649 432.279 105.127 434.33 105.54C436.373 105.947 438.091 106.401 439.491 106.912C443.827 108.504 445.993 111.256 445.993 115.171C445.993 117.975 444.787 120.242 442.389 121.972C439.981 123.704 436.883 124.577 433.08 124.577C430.502 124.577 428.22 124.113 426.22 123.194C424.219 122.275 422.656 121.016 421.522 119.422C420.39 117.819 419.82 116.095 419.82 114.238H427.601C427.67 115.694 428.216 116.815 429.214 117.586C430.216 118.363 431.561 118.754 433.246 118.754C434.816 118.754 436.004 118.449 436.81 117.856C437.609 117.264 438.02 116.484 438.02 115.516Z" fill="#1D1D1B"/>
<path d="M459.224 93.288V96.724C461.395 94.057 464.342 92.725 468.049 92.725C472.004 92.725 474.722 94.28 476.194 97.405C478.36 94.28 481.429 92.725 485.42 92.725C488.756 92.725 491.234 93.688 492.86 95.63C494.487 97.57 495.301 100.487 495.301 104.386V124.004H487.073V104.372C487.073 102.624 486.723 101.35 486.041 100.541C485.366 99.741 484.164 99.33 482.441 99.33C479.983 99.33 478.278 100.513 477.333 102.866L477.358 124.004H469.16V104.398C469.16 102.614 468.808 101.325 468.104 100.527C467.406 99.731 466.214 99.331 464.528 99.331C462.202 99.331 460.519 100.302 459.47 102.236V124.005H451.273V93.289H459.224V93.288Z" fill="#1D1D1B"/>
<path d="M500.118 108.365C500.118 105.311 500.708 102.602 501.875 100.215C503.053 97.828 504.736 95.988 506.948 94.679C509.149 93.371 511.711 92.719 514.625 92.719C518.771 92.719 522.149 93.989 524.774 96.525C527.396 99.062 528.859 102.507 529.157 106.858L529.216 108.96C529.216 113.666 527.895 117.455 525.269 120.299C522.641 123.15 519.111 124.577 514.678 124.577C510.25 124.577 506.721 123.153 504.08 120.31C501.437 117.474 500.118 113.616 500.118 108.732V108.365ZM508.324 108.943C508.324 111.865 508.867 114.093 509.972 115.635C511.066 117.179 512.635 117.955 514.677 117.955C516.669 117.955 518.217 117.189 519.338 115.668C520.452 114.147 521.011 111.701 521.011 108.342C521.011 105.488 520.452 103.266 519.338 101.691C518.217 100.124 516.643 99.33 514.624 99.33C512.62 99.33 511.065 100.117 509.972 101.683C508.867 103.242 508.324 105.664 508.324 108.943Z" fill="#1D1D1B"/>
</g>
<defs>
<clipPath id="clip0">
<rect width="529" height="125" fill="white"/>
</clipPath>
</defs>
</svg>
